<svg width="210" height="50" viewBox="0 0 210 50" fill="none" xmlns="http://www.w3.org/2000/svg">
<path d="M0 0.302677H3.34403V13.0662C3.34403 16.4102 5.77639 18.8389 8.96726 18.8389C12.1581 18.8389 14.5905 16.257 14.5905 13.0662V0.302677H17.9345V13.0662C17.9345 18.2335 14.2878 21.8803 8.9709 21.8803C3.654 21.8803 0 18.2335 0 13.0662V0.302677Z" fill="#00003C"/>
<path d="M26.0447 0.302677H34.5524C38.655 0.302677 41.6927 3.34039 41.6927 7.14026C41.6927 10.9401 38.655 13.9778 34.5524 13.9778H29.385V21.5739H26.041V0.302677H26.0447ZM34.5524 10.9401C36.6785 10.9401 38.3523 9.26993 38.3523 7.14026C38.3523 5.01058 36.6821 3.34039 34.5524 3.34039H29.385V10.9365H34.5524V10.9401Z" fill="#00003C"/>
<path d="M47.9831 0.302677H56.4909C60.5935 0.302677 63.6312 3.34039 63.6312 7.14026C63.6312 10.9401 60.5935 13.9778 56.4909 13.9778H51.3235V21.5739H47.9795V0.302677H47.9831ZM56.4909 10.9401C58.6169 10.9401 60.2908 9.26993 60.2908 7.14026C60.2908 5.01058 58.6206 3.34039 56.4909 3.34039H51.3235V10.9365H56.4909V10.9401Z" fill="#00003C"/>
<path d="M73.9368 0.302677H70.5928V21.5739H73.9368V0.302677Z" fill="#00003C"/>
<path d="M84.0527 0.302677H87.0941L98.7927 15.9543V0.302677H102.137V21.5776H99.0954L87.3968 5.9259V21.5776H84.0527V0.302677Z" fill="#00003C"/>
<path d="M121.738 10.3311H129.487V17.7777C129.487 17.7777 126.297 21.8803 120.371 21.8803C113.989 21.8803 109.128 17.0192 109.128 10.9401C109.128 4.86106 113.989 0 120.371 0C126.143 0 129.032 4.10255 129.032 4.10255L126.906 6.22858C126.906 6.22858 124.78 3.03771 120.371 3.03771C115.962 3.03771 112.468 6.53125 112.468 10.9401C112.468 15.349 115.962 18.8425 120.371 18.8425C124.171 18.8425 126.143 16.5633 126.143 16.5633V13.3725H121.738V10.3348V10.3311Z" fill="#00003C"/>
<path d="M137.236 0.302677H140.58V9.26993H151.065V0.302677H154.405V21.5776H151.065V12.3076H140.58V21.5776H137.236V0.302677Z" fill="#00003C"/>
<path d="M169.116 0.302677H172.763L181.271 21.5739H177.777L175.651 16.1039H166.232L164.106 21.5739H160.612L169.116 0.302677ZM174.433 13.0662L170.94 4.25206L167.446 13.0662H174.437H174.433Z" fill="#00003C"/>
<path d="M186.861 0.302677H189.899L197.955 10.6374L206.007 0.302677H209.048V21.5776H205.704V5.9259L197.955 15.8012L190.205 5.9259V21.5776H186.861V0.302677Z" fill="#00003C"/>
<path d="M62.2379 49.9964H59.4227L54 35.7231H56.7132L60.8339 46.9805H60.874L65.0349 35.7231H67.6642L62.2416 49.9964H62.2379Z" fill="#E13246"/>
<path d="M73.7619 49.9964H71.2129V35.7231H73.7619V49.9964Z" fill="#E13246"/>
<path d="M89.3804 49.9964H78.918V35.7231H89.1762V38.0279H81.467V41.4959H87.5424V43.7787H81.467V47.6953H89.3804V50V49.9964Z" fill="#E13246"/>
<path d="M98.8032 49.9964H96.2541V38.068H92.0312V35.7231H103.022V38.068H98.8032V49.9964Z" fill="#E13246"/>
<path d="M109.141 49.9964H106.614V35.7231H108.897L116.38 45.675H116.442V35.7231H118.991V49.9964H116.686L109.222 40.0445H109.141V49.9964Z" fill="#E13246"/>
<path d="M125.067 49.9964H122.438L128.086 35.7231H130.902L136.528 49.9964H133.815L132.491 46.4882H126.416L125.07 49.9964H125.067ZM129.432 38.5129L127.269 44.2419H131.634L129.472 38.5129H129.432Z" fill="#E13246"/>
<path d="M142.546 49.9964H139.997V35.7231H142.342L147.52 42.3711H147.56L152.761 35.7231H155.043V49.9964H152.494V39.9424H152.414L147.52 46.2038L142.626 39.9424H142.546V49.9964Z" fill="#E13246"/>
</svg>
